<svg width="64" height="65" viewBox="0 0 64 65" fill="none" xmlns="http://www.w3.org/2000/svg">
<path fill-rule="evenodd" clip-rule="evenodd" d="M32 0.5C14.328 0.5 0 14.828 0 32.5C0 50.172 14.328 64.5 32 64.5C49.672 64.5 64 50.172 64 32.5C64 14.828 49.672 0.5 32 0.5ZM32 5.83333C46.704 5.83333 58.6667 17.796 58.6667 32.5C58.6667 47.204 46.704 59.1667 32 59.1667C17.296 59.1667 5.33333 47.204 5.33333 32.5C5.33333 17.796 17.296 5.83333 32 5.83333ZM21.3333 27.1667H26.6667V22.6547C26.6667 18.612 28.7947 16.5 33.5893 16.5H40V23.1667H36.1547C34.9227 23.1667 34.6667 23.6707 34.6667 24.9453V27.1667H40L39.52 32.5H34.6667V48.5H26.6667V32.5H21.3333V27.1667Z" fill="#333333"/>
</svg>
