<svg width="64" height="65" viewBox="0 0 64 65" fill="none" xmlns="http://www.w3.org/2000/svg">
<path fill-rule="evenodd" clip-rule="evenodd" d="M32 0.5C14.328 0.5 0 14.828 0 32.5C0 50.172 14.328 64.5 32 64.5C49.672 64.5 64 50.172 64 32.5C64 14.828 49.672 0.5 32 0.5ZM32 5.83333C46.704 5.83333 58.6667 17.796 58.6667 32.5C58.6667 47.204 46.704 59.1667 32 59.1667C17.296 59.1667 5.33333 47.204 5.33333 32.5C5.33333 17.796 17.296 5.83333 32 5.83333ZM38.4667 19.4787C36.7787 19.4013 36.272 19.3853 32 19.3853C27.728 19.3853 27.2213 19.3987 25.536 19.476C21.1947 19.6733 19.1733 21.7293 18.976 26.036C18.9013 27.7213 18.8827 28.228 18.8827 32.5C18.8827 36.772 18.9013 37.2787 18.976 38.964C19.176 43.26 21.1893 45.324 25.536 45.524C27.2213 45.6013 27.728 45.6173 32 45.6173C36.2747 45.6173 36.7787 45.5987 38.4667 45.524C42.808 45.3267 44.8267 43.2653 45.0267 38.964C45.1013 37.2787 45.1173 36.772 45.1173 32.5C45.1173 28.228 45.1013 27.724 45.0267 26.036C44.8267 21.732 42.8053 19.676 38.4667 19.4787ZM32 16.5C27.6533 16.5 27.112 16.5187 25.4027 16.5987C19.5893 16.8653 16.3627 20.0893 16.096 25.9027C16.0187 27.612 16 28.156 16 32.5C16 36.8467 16.0187 37.3907 16.096 39.0973C16.3627 44.908 19.5893 48.1373 25.4027 48.404C27.112 48.4813 27.6533 48.5 32 48.5C36.3467 48.5 36.8907 48.4813 38.6 48.404C44.4027 48.1373 47.6427 44.9133 47.904 39.0973C47.9813 37.3907 48 36.8467 48 32.5C48 28.156 47.9813 27.612 47.904 25.9027C47.6427 20.0973 44.4133 16.8627 38.6 16.5987C36.8907 16.5187 36.3467 16.5 32 16.5ZM23.784 32.5C23.784 27.9613 27.464 24.284 32 24.284C36.536 24.284 40.216 27.964 40.216 32.5C40.216 37.0387 36.536 40.716 32 40.716C27.464 40.716 23.784 37.0387 23.784 32.5ZM32 37.8333C29.0533 37.8333 26.6667 35.4467 26.6667 32.5C26.6667 29.556 29.0533 27.1667 32 27.1667C34.944 27.1667 37.336 29.5533 37.336 32.5C37.336 35.4467 34.944 37.8333 32 37.8333ZM38.6187 23.9613C38.6187 22.9 39.48 22.0413 40.5387 22.0413C41.6027 22.0413 42.4613 22.9 42.4613 23.9613C42.4613 25.0227 41.6 25.8813 40.5387 25.8813C39.4773 25.8813 38.6187 25.02 38.6187 23.9613Z" fill="#333333"/>
</svg>
