<svg width="24" height="25" viewBox="0 0 24 25" fill="none" xmlns="http://www.w3.org/2000/svg">
<path fill-rule="evenodd" clip-rule="evenodd" d="M17.667 13.112C18.102 13.055 18.532 12.917 18.953 12.714L19.312 13.144C19.76 13.693 20 14.402 20 15.147C20 16.263 19.465 17.38 18.508 18.044L9.081 23.99C8.551 24.323 7.836 24.5 7.24 24.5C5.152 24.5 3.395 22.712 3.627 20.507C3.727 19.561 4.182 18.73 5.004 18.065L6.281 19.61C5.689 20.056 5.521 20.635 5.677 21.264C5.818 21.825 6.307 22.48 7.226 22.48C7.843 22.48 8.378 22.149 8.655 21.594C8.932 21.04 8.876 20.414 8.505 19.921C8.49291 19.9052 8.18723 19.5359 7.70243 18.9502C5.98124 16.8707 2.00239 12.0637 0.889 10.664C0.308 9.933 0 9.047 0 8.177C0 6.762 0.816 5.566 2.05 4.975C4.10796 3.92139 5.66136 3.11584 6.84904 2.49995L6.8491 2.49992C10.0051 0.863335 10.5785 0.56598 11.174 0.511976C11.3062 0.499986 11.4395 0.499992 11.6024 0.5H11.615C12.834 0.5 13.975 1.153 14.593 2.206C15.485 3.728 15.085 5.668 13.663 6.719L5.867 11.165L4.538 9.541C5.126 9.087 5.321 8.497 5.161 7.856C5.02 7.296 4.531 6.641 3.612 6.641C3.024 6.641 2.45 7.01 2.182 7.559C1.902 8.13 2.008 8.775 2.477 9.375C3.885 11.177 9.531 17.996 10 18.553C10.468 19.11 10.752 19.78 10.826 20.501L11.2582 20.2285L11.2595 20.2276C12.7824 19.2675 16.5196 16.9112 17.212 16.466C18.047 15.931 18.211 14.919 17.588 14.227L17.29 13.885C17.421 13.606 17.547 13.343 17.667 13.112ZM17.058 12.144C18.828 12.207 20.246 10.659 21.155 9.14C20.75 9.282 19.938 9.224 19.478 9.037C20.103 8.944 21.002 8.68 21.681 8.212C22.127 7.364 22.41 6.679 22.679 5.936C22.216 6.014 21.678 6.026 21.185 5.937C21.755 5.784 22.461 5.508 22.976 5.104C23.564 4.075 23.919 2.473 24 1.5C22.44 1.622 21.032 2.268 20.108 2.995C19.811 3.405 19.611 4.345 19.587 4.835C19.405 4.5 19.242 3.952 19.325 3.474C18.576 3.963 17.93 4.502 17.212 5.234C16.903 6.096 16.93 7.055 17.017 7.585C16.775 7.306 16.437 6.751 16.416 6.11C15.143 7.598 14.345 9.461 15.443 11.289C16.359 10.143 17.435 9.035 18.105 8.506C16.638 10.539 15.343 13.157 14.407 15.5L15.719 14.947C16.206 13.821 16.645 12.85 17.058 12.144ZM7.959 13.726L7.314 12.945L12.064 10.167L12.732 10.935L7.959 13.726ZM14.274 12.707L13.606 11.94L8.801 14.748L9.446 15.529L14.274 12.707ZM11.02 2.652C11.208 2.565 11.418 2.518 11.629 2.518C12.161 2.518 12.626 2.799 12.872 3.27C13.184 3.866 13.098 4.739 12.324 5.182L7.227 8.07C7.176 6.981 6.648 5.989 5.772 5.338L11.02 2.652ZM13.478 15.13L13.117 16.035L10.923 17.319L10.278 16.538L13.727 14.521L13.478 15.13Z" fill="#333333"/>
</svg>
