<svg width="24" height="23" viewBox="0 0 24 23" fill="none" xmlns="http://www.w3.org/2000/svg">
<path fill-rule="evenodd" clip-rule="evenodd" d="M0 12.5C0 5.873 5.373 0.5 12 0.5C18.627 0.5 24 5.873 24 12.5C24 15.083 23.184 17.542 21.795 19.5H17.438C16.508 21.147 14.423 22.5 12 22.5C9.577 22.5 7.492 21.147 6.562 19.5H2.205C0.816 17.542 0 15.083 0 12.5ZM12 2.5C17.514 2.5 22 6.986 22 12.5C22 14.258 21.542 16 20.697 17.5H16.27C15.86 18.547 14.625 20.5 12 20.5C9.344 20.5 8.141 18.547 7.73 17.5H3.303C2.458 16 2 14.258 2 12.5C2 6.986 6.486 2.5 12 2.5ZM12.67 4.328C12.451 4.311 12.233 4.302 12.022 4.302C11.809 4.302 11.59 4.311 11.372 4.328V7.112C11.588 7.087 11.806 7.074 12.022 7.074C12.237 7.074 12.456 7.087 12.67 7.112V4.328ZM15.86 5.257C15.473 5.052 15.07 4.878 14.66 4.738L13.637 7.311C14.055 7.436 14.457 7.61 14.837 7.83L15.86 5.257ZM9.185 7.842C9.565 7.621 9.966 7.446 10.383 7.319L9.35 4.75C8.938 4.892 8.537 5.067 8.15 5.274L9.185 7.842ZM8.389 8.399C8.05 8.682 7.742 9.002 7.471 9.356L5.58 7.388C5.862 7.045 6.171 6.724 6.499 6.431L8.389 8.399ZM19.527 9.018C19.729 9.416 19.902 9.833 20.043 10.26L17.59 11.366C17.463 10.934 17.29 10.517 17.073 10.124L19.527 9.018ZM6.924 10.207C6.713 10.603 6.547 11.022 6.426 11.457L3.956 10.391C4.09 9.964 4.258 9.544 4.454 9.141L6.924 10.207ZM17.543 6.431C17.871 6.724 18.18 7.046 18.461 7.388L16.571 9.356C16.3 9.003 15.992 8.682 15.652 8.399L17.543 6.431ZM9.678 15.767C9.678 17.061 10.728 18.11 12.021 18.11C13.316 18.11 14.365 17.061 14.365 15.767C14.365 14.884 13.877 14.115 13.154 13.716L12.021 8.407L10.888 13.716C10.167 14.115 9.678 14.884 9.678 15.767Z" fill="#333333"/>
</svg>
