<svg width="64" height="65" viewBox="0 0 64 65" fill="none" xmlns="http://www.w3.org/2000/svg">
<path fill-rule="evenodd" clip-rule="evenodd" d="M32 0.5C14.328 0.5 0 14.828 0 32.5C0 50.172 14.328 64.5 32 64.5C49.672 64.5 64 50.172 64 32.5C64 14.828 49.672 0.5 32 0.5ZM32 5.83333C46.704 5.83333 58.6667 17.796 58.6667 32.5C58.6667 47.204 46.704 59.1667 32 59.1667C17.296 59.1667 5.33333 47.204 5.33333 32.5C5.33333 17.796 17.296 5.83333 32 5.83333ZM45.5627 24.9427C46.8907 24.7827 48.1573 24.4307 49.3333 23.908C48.4533 25.2253 47.3413 26.3827 46.056 27.3053C46.472 36.54 39.5867 46.836 27.3947 46.836C23.688 46.836 20.24 45.7507 17.3333 43.8867C20.8187 44.2973 24.2933 43.3293 27.0587 41.164C24.1893 41.1107 21.76 39.2147 20.9253 36.6067C21.9547 36.804 22.968 36.7453 23.8907 36.4947C20.7333 35.86 18.552 33.0147 18.624 29.9747C19.5093 30.4653 20.52 30.7613 21.5947 30.796C18.672 28.8413 17.8427 24.98 19.5627 22.0307C22.8 26.0013 27.64 28.6147 33.0933 28.8893C32.136 24.7827 35.2507 20.828 39.4907 20.828C41.376 20.828 43.0853 21.6253 44.28 22.9027C45.776 22.6093 47.1813 22.0627 48.4507 21.3107C47.9573 22.844 46.92 24.1293 45.5627 24.9427Z" fill="#333333"/>
</svg>
